<svg fill="#000000" xmlns="http://www.w3.org/2000/svg"  viewBox="0 0 50 50" width="50px" height="50px"><path d="M 28.345703 0.94921875 C 27.561991 0.92949077 26.787983 0.95858267 26.029297 1.03125 C 20.119994 1.5972457 15.140366 4.7042764 12.791016 8.3789062 C 8.2088713 10.016946 5.9094918 13.554835 4.8789062 16.640625 C 3.8219887 19.805258 3.9628906 22.587891 3.9628906 22.587891 A 1.0001 1.0001 0 0 0 5.7226562 23.1875 C 5.7226562 23.1875 6.370514 22.427503 6.5917969 22.167969 C 6.0990596 28.705285 7.9314521 33.893747 10.347656 37.470703 C 11.752768 39.550835 13.29553 41.124526 14.583984 42.214844 C 15.228211 42.760003 15.808531 43.185508 16.285156 43.494141 C 16.520257 43.646377 16.710563 43.766483 16.892578 43.865234 L 16.015625 48.826172 A 1.0001 1.0001 0 1 0 17.984375 49.173828 L 19.320312 41.615234 C 19.883109 42.792161 20.52332 43.853778 21.269531 44.710938 C 22.055163 45.613175 22.988994 46.364624 24 46.990234 A 1.0001 1.0001 0 0 0 24 47 L 24 49 A 1.0001 1.0001 0 1 0 26 49 L 26 48.007812 C 27.948939 48.786488 30.07406 49.108733 32.115234 48.898438 C 36.040902 48.493989 39.70746 45.950056 40.667969 41.132812 C 41.384969 37.536642 40.662669 34.854028 39.941406 31.703125 C 39.816653 31.158125 39.696676 30.563228 39.576172 29.974609 C 42.552657 27.408927 43.214139 23.687971 43.113281 20.681641 C 43.014531 17.738003 42.270659 15.544867 42.142578 15.177734 C 44.013401 12.914383 44.921875 10.898437 44.921875 10.898438 A 1.0001 1.0001 0 0 0 44.769531 9.9414062 C 39.820059 3.5946536 33.831686 1.0873146 28.345703 0.94921875 z M 28.244141 2.9472656 C 33.035223 3.0489194 38.230301 5.1702198 42.785156 10.755859 C 42.239263 12.062858 39.263023 17.984028 30.632812 19.65625 C 31.259578 18.112999 32.006996 15.880664 32 12.996094 A 1.0001 1.0001 0 0 0 30.662109 12.058594 C 27.262307 13.282041 19.65625 16.060547 19.65625 16.060547 A 1.0001 1.0001 0 0 0 19.039062 17.273438 C 19.039062 17.273438 19.508553 18.923479 19.626953 21.054688 C 19.727499 22.864511 19.406728 24.86701 18.572266 26.492188 C 18.164894 26.272844 17.89328 26.227264 17.082031 25.416016 C 15.835596 24.16958 14.459122 22.139633 13.990234 18.857422 A 1.0003071 1.0003071 0 1 0 12.009766 19.140625 C 12.185038 20.367533 12.485827 21.446867 12.855469 22.412109 C 11.874203 23.157218 11.257959 24.183953 11.025391 25.269531 C 10.75017 26.554197 10.953481 27.901964 11.462891 29.138672 C 12.384054 31.374991 14.383625 33.280956 16.896484 33.693359 C 17.171472 35.143174 17.516903 36.588154 17.933594 37.970703 L 17.267578 41.740234 C 16.885247 41.486631 16.413473 41.143467 15.876953 40.689453 C 14.71322 39.704677 13.292497 38.256305 12.005859 36.351562 C 9.4325839 32.542077 7.3692639 26.945662 8.8457031 19.326172 A 1.0001 1.0001 0 0 0 7.1035156 18.486328 C 6.721383 18.9343 6.6954707 18.965811 6.3398438 19.382812 C 6.4620415 18.687886 6.5070523 18.076899 6.7753906 17.273438 C 7.7047231 14.490821 9.5831772 11.482844 13.728516 10.126953 A 1.0001 1.0001 0 0 0 14.277344 9.6875 C 16.096757 6.6276595 20.764491 3.5458489 26.21875 3.0234375 C 26.883664 2.9597518 27.5597 2.9327437 28.244141 2.9472656 z M 29.845703 14.482422 C 29.472077 17.703859 28.111328 20.539062 28.111328 20.539062 A 1.0001 1.0001 0 0 0 29.105469 21.994141 C 29.476205 21.954611 29.819406 21.888923 30.173828 21.833984 C 30.432913 24.72581 31.458364 27.00871 32.695312 29.1875 C 30.629089 30.512871 28.394531 29.642578 28.394531 29.642578 A 1.0001 1.0001 0 1 0 27.605469 31.480469 C 27.605469 31.480469 31.560182 33.145405 34.673828 30.300781 A 1.0001 1.0001 0 0 0 34.855469 29.044922 C 33.426041 26.675262 32.385636 24.4815 32.150391 21.527344 A 1.0001 1.0001 0 0 0 32.140625 21.439453 C 33.937394 20.986202 35.501037 20.342806 36.855469 19.583984 C 36.64077 23.695194 36.956439 26.814572 37.412109 29.349609 A 1.0001 1.0001 0 0 0 37.607422 30.326172 C 37.734203 30.952756 37.860876 31.585274 37.990234 32.150391 C 38.720978 35.342737 39.338031 37.577359 38.707031 40.742188 C 37.90354 44.771943 35.162238 46.573152 31.910156 46.908203 C 28.658074 47.243254 24.95904 45.903948 22.777344 43.398438 C 20.94192 41.290121 19.434676 36.939081 18.691406 32.681641 A 1.0001 1.0001 0 0 0 17.730469 31.853516 C 15.845002 31.808216 14.078173 30.235787 13.3125 28.376953 C 12.929663 27.447536 12.810127 26.482615 12.980469 25.6875 C 13.096734 25.1448 13.337881 24.680755 13.742188 24.283203 C 14.342136 25.327127 15.013489 26.177551 15.667969 26.832031 C 17.171534 28.335596 18.628906 28.927734 18.628906 28.927734 A 1.0001 1.0001 0 0 0 19.800781 28.599609 C 21.532781 26.290276 21.754646 23.312151 21.623047 20.943359 C 21.520629 19.09984 21.254914 18.247865 21.107422 17.660156 C 21.902131 17.369905 26.416371 15.724243 29.845703 14.482422 z M 27 16.398438 A 1.0001 1.0001 0 0 0 26.378906 16.617188 L 24.140625 18.345703 A 1.0001 1.0001 0 1 0 25.363281 19.927734 L 27.601562 18.199219 A 1.0001 1.0001 0 0 0 27 16.398438 z M 40.554688 16.890625 C 40.798048 17.836691 41.060807 19.127639 41.115234 20.75 C 41.192465 23.052002 40.782257 25.570525 39.144531 27.542969 C 38.810853 25.198572 38.638161 22.394127 38.902344 18.710938 A 1.0001 1.0001 0 0 0 38.849609 18.294922 C 39.466438 17.837782 40.042334 17.368637 40.554688 16.890625 z M 27 23 A 1 1 0 0 0 27 25 A 1 1 0 0 0 27 23 z M 35 23 A 1 1 0 0 0 35 25 A 1 1 0 0 0 35 23 z M 35.980469 33.990234 A 1.0001 1.0001 0 0 0 35.292969 34.292969 L 33.644531 35.941406 C 30.202941 35.243071 27.729994 35.808498 27.162109 35.962891 L 23.447266 34.105469 A 1.0001163 1.0001163 0 1 0 22.552734 35.894531 L 26.552734 37.894531 A 1.0001 1.0001 0 0 0 27.294922 37.955078 C 27.294922 37.955078 30.148828 37.077031 33.759766 37.970703 A 1.0001 1.0001 0 0 0 34.707031 37.707031 L 36.707031 35.707031 A 1.0001 1.0001 0 0 0 35.980469 33.990234 z M 32.974609 39 A 1.0001 1.0001 0 0 0 32.904297 39.003906 C 32.904297 39.003906 32.165223 39.074765 31.269531 39.242188 C 30.37384 39.40961 29.332236 39.631555 28.482422 40.144531 A 1.0001 1.0001 0 1 0 29.517578 41.855469 C 29.878764 41.637445 30.837113 41.358812 31.638672 41.208984 C 32.44023 41.059157 33.095703 40.996094 33.095703 40.996094 A 1.0001 1.0001 0 0 0 32.974609 39 z"/></svg>